<svg width="270" height="270" viewBox="0 0 270 270" fill="none" xmlns="http://www.w3.org/2000/svg">
<circle cx="135" cy="135" r="135" fill="#4DBA87"/>
<path d="M143.891 205.794L191.953 178.08L187.606 170.56L139.544 198.274L143.891 205.794Z" fill="white"/>
<path d="M82.1851 98.0878L131.187 69.8323L126.84 62.312L77.8381 90.5676L82.1851 98.0878Z" fill="white"/>
<path d="M70.5046 161.274L79.1987 161.274L79.198 107.052L70.5039 107.052L70.5046 161.274Z" fill="white"/>
<path d="M127.829 195.863L135.358 191.521L86.9671 105.474L79.4378 109.816L127.829 195.863Z" fill="white"/>
<path d="M134.56 192.811L142.089 197.153L195.639 106.951L188.11 102.61L134.56 192.811Z" fill="white"/>
<path d="M83.893 171.82L79.5459 179.341L122.446 204.079L126.793 196.559L83.893 171.82Z" fill="white"/>
<path d="M145.527 64.8239L141.18 72.3441L189.389 100.144L189.635 98.9132C190.142 96.3671 191.611 94.1145 193.736 92.6236V92.6236L145.527 64.8239Z" fill="white"/>
<path d="M193.005 162.044L201.699 162.044L201.699 108.677L193.004 108.677L193.005 162.044Z" fill="white"/>
<path fill-rule="evenodd" clip-rule="evenodd" d="M202.395 95.5771L202.385 95.5602C200.599 92.4558 196.655 91.3705 193.484 93.1919C190.362 95.0038 189.314 98.994 191.099 102.066C192.923 105.203 196.938 106.25 200.012 104.472C203.14 102.662 204.191 98.6679 202.404 95.5939L202.395 95.5771ZM189.133 85.6739C181.874 89.874 179.367 99.1743 183.58 106.425C187.793 113.675 197.111 116.186 204.37 111.986C211.629 107.786 214.137 98.4852 209.924 91.235C205.732 83.947 196.452 81.4579 189.133 85.6739Z" fill="white"/>
<path fill-rule="evenodd" clip-rule="evenodd" d="M76.4755 174.804C79.6138 172.987 80.6643 168.98 78.8788 165.904C77.0761 162.799 73.1049 161.718 69.9512 163.514C66.826 165.336 65.7825 169.334 67.5648 172.404C69.3845 175.538 73.3963 176.588 76.4755 174.804ZM65.6069 155.992C58.3443 160.198 55.8323 169.506 60.0436 176.76C64.2548 184.013 73.5741 186.522 80.8367 182.316C88.0993 178.11 90.6113 168.802 86.4 161.549C82.1888 154.295 72.9072 151.808 65.6069 155.992Z" fill="white"/>
<path fill-rule="evenodd" clip-rule="evenodd" d="M128.842 206.79C128.862 210.415 131.785 213.31 135.379 213.316C138.922 213.323 141.861 210.466 141.894 206.796C141.868 203.182 138.958 200.298 135.377 200.281C131.753 200.3 128.859 203.209 128.842 206.79ZM120.148 206.793C120.17 215.2 126.967 221.984 135.362 222C143.758 222.016 150.551 215.227 150.588 206.804C150.566 198.397 143.769 191.613 135.374 191.597C126.957 191.619 120.164 198.408 120.148 206.793Z" fill="white"/>
<path fill-rule="evenodd" clip-rule="evenodd" d="M127.973 63.1928C127.992 66.8183 130.915 69.7128 134.509 69.7195C138.062 69.7262 141.007 66.8246 141.024 63.2103C141.005 59.5913 138.092 56.7008 134.507 56.6836C130.884 56.7034 127.99 59.6123 127.973 63.1928ZM119.278 63.1959C119.3 71.6027 126.098 78.3873 134.493 78.4031C142.888 78.4188 149.703 71.5921 149.719 63.2071C149.697 54.8004 142.899 48.0157 134.504 48C126.087 48.022 119.294 54.811 119.278 63.1959Z" fill="white"/>
<path fill-rule="evenodd" clip-rule="evenodd" d="M193.526 174.794C196.654 176.598 200.627 175.535 202.433 172.41C204.231 169.3 203.151 165.304 200.047 163.514C196.918 161.71 192.945 162.773 191.139 165.898C189.333 169.022 190.398 172.99 193.526 174.794ZM189.179 182.314C196.466 186.516 205.756 184.03 209.963 176.752C214.17 169.474 211.643 160.174 204.394 155.994C197.107 151.792 187.817 154.278 183.61 161.556C179.403 168.834 181.892 178.113 189.179 182.314Z" fill="white"/>
<path fill-rule="evenodd" clip-rule="evenodd" d="M70.8227 104.457C73.951 106.261 77.9239 105.198 79.73 102.074C81.5361 98.9491 80.4716 94.9811 77.3433 93.1771C74.215 91.3732 70.2421 92.4365 68.4359 95.5609C66.6298 98.6854 67.6943 102.653 70.8227 104.457ZM66.4756 111.978C73.7622 116.179 83.0524 113.693 87.2594 106.415C91.4664 99.1376 88.9771 89.8588 81.6904 85.657C74.4037 81.4551 65.1135 83.9414 60.9066 91.2192C56.6996 98.4969 59.1889 107.776 66.4756 111.978Z" fill="white"/>
<path d="M141.187 146.708L122.886 112.887L160.711 112.982L166.164 103.449L105.171 103.45L135.734 156.241L141.187 146.708Z" fill="white"/>
<path d="M155.273 122.254L141.187 146.708L134.275 139.615L144.226 122.253L147.889 122.254L155.273 122.254Z" fill="white"/>
<path d="M138.417 122.255L145.426 122.255L141.922 128.369L138.417 122.255Z" fill="white"/>
</svg>
